<svg width="96" height="96" xmlns="http://www.w3.org/2000/svg" xmlns:xlink="http://www.w3.org/1999/xlink" xml:space="preserve" overflow="hidden"><g transform="translate(-242 -480)"><
    path d="M288.4 569.042C291.494 569.042 293.1 567.279 294.54 565.267 295.657 563.706 296.378 562.814 298.186 562.648 300.413 562.448 302.522 563.659 304.964 565.064 309.012 567.4 314.054 570.3 321.254 566.9 322.246 566.414 322.656 565.216 322.17 564.224 321.694 563.253 320.532 562.836 319.547 563.283 314.237 565.789 310.863 563.846 306.957 561.598 304.179 559.998 301.31 558.344 297.817 558.665 294.099 559.006 292.473 561.279 291.284 562.939 289.868 564.917 289.157 565.91 284.743 564.139 283.717 563.729 282.553 564.227 282.143 565.253 281.733 566.279 282.231 567.443 283.257 567.853 284.881 568.57 286.626 568.974 288.4 569.042Z"
     fill="#008000"/><
    path d="M312.1 543.96C314.347 547.596 319.142 555.845 321.13 563.019 321.139 563.055 321.117 563.091 321.081 563.1 321.055 563.107 321.027 563.097 321.011 563.075 319.238 560.948 317.206 559.052 314.963 557.428L314.963 557.428C314.934 557.345 313.222 552.467 308.15 544.755 308.14 544.74 308.123 544.732 308.105 544.735 306.285 544.895 304.452 544.663 302.729 544.053 295.712 542.105 290.629 535.436 290.129 534.753 290.109 534.726 290.129 534.696 290.165 534.696 292.875 534.665 295.544 534.033 297.979 532.844 298.081 532.802 298.13 532.685 298.087 532.583 298.05 532.493 297.954 532.443 297.859 532.464L297.853 532.464C292.5 533.312 287.094 531.288 283.614 527.132 281.453 524.534 279.078 522.121 276.514 519.919 273.297 517.156 269.226 514.413 265.464 511.577 265.268 511.421 265.236 511.136 265.392 510.94 265.46 510.855 265.556 510.797 265.664 510.777 268.139 510.315 270.492 509.345 272.574 507.93 272.623 507.897 272.655 507.845 272.661 507.786 272.674 507.676 272.596 507.577 272.487 507.563 272.458 507.56 272.429 507.562 272.402 507.571 269.261 508.531 265.919 508.629 262.727 507.855 260.848 507.391 259.162 506.347 257.91 504.871 254.579 500.98 253.21 496.797 256.249 492.085 258.32 488.872 262.94 487.485 268.927 488.176 272.431 488.548 275.43 490.854 276.689 494.145 277.119 495.298 277.431 496.492 277.62 497.709 277.62 497.819 277.71 497.909 277.82 497.909 277.931 497.909 278.02 497.819 278.02 497.709 278.05 497.509 278.075 497.309 278.098 497.109 278.32 495.122 278.215 493.111 277.785 491.158 277.726 490.921 277.871 490.68 278.108 490.621 278.195 490.6 278.286 490.605 278.369 490.636 283.06 492.517 287.495 494.982 291.569 497.974 296.287 501.369 300.613 505.278 304.469 509.627 306.944 512.407 308.267 516.026 308.169 519.747 308.107 521.308 307.844 522.854 307.385 524.347 307.347 524.451 307.401 524.566 307.505 524.603 307.594 524.636 307.695 524.601 307.744 524.519 309.023 522.635 309.939 520.528 310.444 518.307L310.526 518.294C312.912 522.872 315.497 530.042 315.903 534.794 316.16 537.806 315.315 540.508 313.765 541.98 313.748 541.997 313.72 541.998 313.703 541.981 313.7 541.978 313.697 541.975 313.695 541.971 309.952 535.356 302.367 524.1 296.966 518.686 292.849 514.461 288.254 510.729 283.274 507.567 282.573 507.125 281.81 506.788 281.011 506.567 280.907 506.531 280.793 506.587 280.757 506.691 280.726 506.78 280.762 506.878 280.842 506.927 284.938 509.776 288.773 512.984 292.3 516.513 298.532 522.753 307.232 534.768 311.422 542.746 311.636 543.162 311.858 543.561 312.1 543.96Z" fill="#008000"/></g></svg>